{"title":"The.Ten.Commandments.1956.[1184x664]BRRip.XviD.AC3 - CODY","uid":6311323,"size":4134808941,"categoryP":"video","categoryS":"movies","magnet":"?xt=urn:btih:6f648d81e643ca3e746406bdd1b881a823919e13&amp;dn=The.Ten.Commandments.1956.%5B1184x664%5DBRRip.XviD.AC3+-+CODY&amp;tr=udp%3A%2F%2Ftracker.openbittorrent.com%3A80&amp;tr=udp%3A%2F%2Fopen.demonii.com%3A1337&amp;tr=udp%3A%2F%2Ftracker.coppersurfer.tk%3A6969&amp;tr=udp%3A%2F%2Fexodus.desync.com%3A6969","seeders":0,"leechers":1,"uploader":"CODYBOSS1969","files":6,"time":1302548727,"description":"General\nComplete name                    : The.Ten.Commandments.1956.[1184x664]BRRip.XviD.AC3 - CODY.avi\nFormat                           : AVI\nFormat/Info                      : Audio Video Interleave\nFormat profile                   : OpenDML\nFile size                        : 3.82 GiB\nDuration                         : 3h 51mn\nOverall bit rate                 : 2 360 Kbps\nWriting application              : VirtualDubMod 1.5.10.2 (build 2540/release)\nWriting library                  : VirtualDubMod build 2540/release\n\nVideo\nID                               : 0\nFormat                           : MPEG-4 Visual\nFormat profile                   : Advanced Simple@L5\nFormat settings, BVOP            : 1\nFormat settings, QPel            : No\nFormat settings, GMC             : No warppoints\nFormat settings, Matrix          : Default (H.263)\nCodec ID                         : XVID\nCodec ID/Hint                    : XviD\nDuration                         : 3h 51mn\nBit rate                         : 1 903 Kbps\nWidth                            : 1 184 pixels\nHeight                           : 664 pixels\nDisplay aspect ratio             : 16:9\nFrame rate                       : 23.976 fps\nColor space                      : YUV\nChroma subsampling               : 4:2:0\nBit depth                        : 8 bits\nScan type                        : Progressive\nCompression mode                 : Lossy\nBits/(Pixel*Frame)               : 0.101\nStream size                      : 3.08 GiB (81%)\nWriting library                  : XviD 1.2.0.dev47 (UTC 2006-11-01)\n\nAudio\nID                               : 1\nFormat                           : AC-3\nFormat/Info                      : Audio Coding 3\nMode extension                   : CM (complete main)\nCodec ID                         : 2000\nDuration                         : 3h 51mn\nBit rate mode                    : Constant\nBit rate                         : 448 Kbps\nChannel(s)                       : 6 channels\nChannel positions                : Front: L C R, Side: L R, LFE\nSampling rate                    : 48.0 KHz\nBit depth                        : 16 bits\nCompression mode                 : Lossy\nStream size                      : 742 MiB (19%)\nAlignment                        : Split accross interleaves\nInterleave, duration             : 42 ms (1.00 video frame)\nInterleave, preload duration     : 500 ms\n\n\n\nIMDB link                         &lt;a href=&quot; http://www.imdb.com/title/tt0049833/&quot; rel=&quot;nofollow&quot; target=&quot;_NEW&quot;&gt; http://www.imdb.com/title/tt0049833/&lt;/a&gt;\n\n\nSubtitles included               : Romanian, English\n\n\nPlease seed at least 1,5:1 . This way this torrent has a chance to survive !!\n\n\n\nThanks. ENJOY !!!\n\n","torrent":{"xt":"urn:btih:6f648d81e643ca3e746406bdd1b881a823919e13","amp;dn":"The.Ten.Commandments.1956.%5B1184x664%5DBRRip.XviD.AC3+-+CODY","amp;tr":["udp%3A%2F%2Ftracker.openbittorrent.com%3A80","udp%3A%2F%2Fopen.demonii.com%3A1337","udp%3A%2F%2Ftracker.coppersurfer.tk%3A6969","udp%3A%2F%2Fexodus.desync.com%3A6969"],"infoHash":"6f648d81e643ca3e746406bdd1b881a823919e13","infoHashBuffer":{"type":"Buffer","data":[111,100,141,129,230,67,202,62,116,100,6,189,209,184,129,168,35,145,158,19]},"announce":[],"urlList":[]}}